<svg width="106" height="25" viewBox="0 0 106 25" fill="none" xmlns="http://www.w3.org/2000/svg">
<path d="M14.1133 0.917969C15.2969 0.917969 16.3691 1.09375 17.3301 1.44531C18.291 1.79688 19.1055 2.27734 19.7734 2.88672C20.4531 3.49609 20.9746 4.21094 21.3379 5.03125C21.7012 5.83984 21.8828 6.70117 21.8828 7.61523V18.3027C21.8828 19.2168 21.7012 20.084 21.3379 20.9043C20.9746 21.7129 20.4531 22.4219 19.7734 23.0312C19.1055 23.6406 18.291 24.1211 17.3301 24.4727C16.3691 24.8242 15.2969 25 14.1133 25H8.69922C7.51562 25 6.44336 24.8242 5.48242 24.4727C4.52148 24.1211 3.70117 23.6406 3.02148 23.0312C2.35352 22.4219 1.83789 21.7129 1.47461 20.9043C1.11133 20.084 0.929688 19.2168 0.929688 18.3027V7.61523C0.929688 6.70117 1.11133 5.83984 1.47461 5.03125C1.83789 4.21094 2.35352 3.49609 3.02148 2.88672C3.70117 2.27734 4.52148 1.79688 5.48242 1.44531C6.44336 1.09375 7.51562 0.917969 8.69922 0.917969H14.1133ZM15.7305 17.0371H17.7344L16.3457 3.94141L15.2559 2.85156L12.918 2.5H11.0371L8.69922 2.85156L7.62695 3.94141L6.18555 17.0371H8.27734L8.55859 13.293L8.73438 11.6758H15.2207L15.3965 13.293L15.7305 17.0371ZM14.5 4.62695C14.582 5.57617 14.6758 6.47266 14.7812 7.31641C14.8867 8.16016 14.9863 9.05078 15.0801 9.98828H8.89258L9.41992 4.62695C9.74805 4.5918 10.0293 4.55078 10.2637 4.50391C10.5098 4.45703 10.7969 4.41016 11.125 4.36328H12.8477L14.5 4.62695ZM36.9648 15.1738H31.5684V2.5H29.7051V17.0371H36.9648V15.1738ZM34.9258 0.917969C36.1094 0.917969 37.1816 1.09375 38.1426 1.44531C39.1035 1.79688 39.918 2.27734 40.5859 2.88672C41.2656 3.49609 41.7871 4.21094 42.1504 5.03125C42.5137 5.83984 42.6953 6.70117 42.6953 7.61523V18.3027C42.6953 19.2168 42.5137 20.084 42.1504 20.9043C41.7871 21.7129 41.2656 22.4219 40.5859 23.0312C39.918 23.6406 39.1035 24.1211 38.1426 24.4727C37.1816 24.8242 36.1094 25 34.9258 25H29.5117C28.3281 25 27.2559 24.8242 26.2949 24.4727C25.334 24.1211 24.5137 23.6406 23.834 23.0312C23.166 22.4219 22.6504 21.7129 22.2871 20.9043C21.9238 20.084 21.7422 19.2168 21.7422 18.3027V7.61523C21.7422 6.70117 21.9238 5.83984 22.2871 5.03125C22.6504 4.21094 23.166 3.49609 23.834 2.88672C24.5137 2.27734 25.334 1.79688 26.2949 1.44531C27.2559 1.09375 28.3281 0.917969 29.5117 0.917969H34.9258ZM55.7383 0.917969C56.9219 0.917969 57.9941 1.09375 58.9551 1.44531C59.916 1.79688 60.7305 2.27734 61.3984 2.88672C62.0781 3.49609 62.5996 4.21094 62.9629 5.03125C63.3262 5.83984 63.5078 6.70117 63.5078 7.61523V18.3027C63.5078 19.2168 63.3262 20.084 62.9629 20.9043C62.5996 21.7129 62.0781 22.4219 61.3984 23.0312C60.7305 23.6406 59.916 24.1211 58.9551 24.4727C57.9941 24.8242 56.9219 25 55.7383 25H50.3242C49.1406 25 48.0684 24.8242 47.1074 24.4727C46.1465 24.1211 45.3262 23.6406 44.6465 23.0312C43.9785 22.4219 43.4629 21.7129 43.0996 20.9043C42.7363 20.084 42.5547 19.2168 42.5547 18.3027V7.61523C42.5547 6.70117 42.7363 5.83984 43.0996 5.03125C43.4629 4.21094 43.9785 3.49609 44.6465 2.88672C45.3262 2.27734 46.1465 1.79688 47.1074 1.44531C48.0684 1.09375 49.1406 0.917969 50.3242 0.917969H55.7383ZM58.9727 5.34766L58.7266 3.87109L57.6016 2.74609L55.8086 2.5H49.252V17.0371H51.0801V11.8516H55.8086L57.6016 11.6406L58.7266 10.5332L58.9727 9.02148V5.34766ZM56.8457 9.8125L55.7031 9.98828H51.0801V4.36328H55.7031L56.916 4.55664L57.0918 5.59375V8.82812L56.8457 9.8125ZM80.207 2.5H78.3789V8.65234H71.0664V2.5H69.2031V17.0371H71.0664V10.498H78.3789V17.0371H80.207V2.5ZM76.5508 0.917969C77.7344 0.917969 78.8066 1.09375 79.7676 1.44531C80.7285 1.79688 81.543 2.27734 82.2109 2.88672C82.8906 3.49609 83.4121 4.21094 83.7754 5.03125C84.1387 5.83984 84.3203 6.70117 84.3203 7.61523V18.3027C84.3203 19.2168 84.1387 20.084 83.7754 20.9043C83.4121 21.7129 82.8906 22.4219 82.2109 23.0312C81.543 23.6406 80.7285 24.1211 79.7676 24.4727C78.8066 24.8242 77.7344 25 76.5508 25H71.1367C69.9531 25 68.8809 24.8242 67.9199 24.4727C66.959 24.1211 66.1387 23.6406 65.459 23.0312C64.791 22.4219 64.2754 21.7129 63.9121 20.9043C63.5488 20.084 63.3672 19.2168 63.3672 18.3027V7.61523C63.3672 6.70117 63.5488 5.83984 63.9121 5.03125C64.2754 4.21094 64.791 3.49609 65.459 2.88672C66.1387 2.27734 66.959 1.79688 67.9199 1.44531C68.8809 1.09375 69.9531 0.917969 71.1367 0.917969H76.5508ZM99.5254 17.0195V13.0117V5.3125V3.83594L98.3301 2.71094L96.5723 2.5H92.5645L90.5078 2.74609L90.9473 4.66211L92.5996 4.32812H96.5195L97.5742 4.55664L97.8203 5.48828V9.58398L96.5723 9.37305H92.5645L90.8066 9.63672L89.6816 10.7441L89.4355 12.1855V14.2422L89.6816 15.7188L90.8066 16.8262L92.5645 17.0371H96.4141L97.7852 16.8262L99.5254 17.0195ZM97.8203 14.998L96.4492 15.1738H92.6699L91.5625 14.998L91.3164 13.9434V12.4316L91.457 11.4297L92.6699 11.2539H96.4844L97.8203 11.3945V14.0488V14.998ZM97.3633 0.917969C98.5469 0.917969 99.6191 1.09375 100.58 1.44531C101.541 1.79688 102.355 2.27734 103.023 2.88672C103.703 3.49609 104.225 4.21094 104.588 5.03125C104.951 5.83984 105.133 6.70117 105.133 7.61523V18.3027C105.133 19.2168 104.951 20.084 104.588 20.9043C104.225 21.7129 103.703 22.4219 103.023 23.0312C102.355 23.6406 101.541 24.1211 100.58 24.4727C99.6191 24.8242 98.5469 25 97.3633 25H91.9492C90.7656 25 89.6934 24.8242 88.7324 24.4727C87.7715 24.1211 86.9512 23.6406 86.2715 23.0312C85.6035 22.4219 85.0879 21.7129 84.7246 20.9043C84.3613 20.084 84.1797 19.2168 84.1797 18.3027V7.61523C84.1797 6.70117 84.3613 5.83984 84.7246 5.03125C85.0879 4.21094 85.6035 3.49609 86.2715 2.88672C86.9512 2.27734 87.7715 1.79688 88.7324 1.44531C89.6934 1.09375 90.7656 0.917969 91.9492 0.917969H97.3633Z" fill="white"/>
</svg>
