<svg width="70" height="70" viewBox="0 0 70 70" fill="none" xmlns="http://www.w3.org/2000/svg">
<path d="M43.9376 55.997L35.1407 69.995H17.5704L26.3673 55.997L17.5704 41.999L8.79691 28.001L0 14.0029L8.79691 0.00491333H26.3673L17.5704 14.0029L26.3673 28.001L35.1407 41.999L43.9376 55.997Z" fill="url(#paint0_linear_1273_395)"/>
<path d="M69.9999 55.997L61.203 69.995H43.6326L52.4295 55.997L43.6326 41.999L34.8592 28.001L26.0623 14.0029L34.8592 0.00491333H52.4295L43.6326 14.0029L52.4295 28.001L61.203 41.999L69.9999 55.997Z" fill="url(#paint1_linear_1273_395)"/>
<path d="M17.8753 55.9971L9.07838 69.9951L0.304932 55.9971L9.07838 41.999L17.8753 55.9971Z" fill="url(#paint2_linear_1273_395)"/>
<path d="M52.1248 14.0029L60.9217 0.00491333L69.6951 14.0029L60.9217 28.001L52.1248 14.0029Z" fill="url(#paint3_linear_1273_395)"/>
<defs>
<linearGradient id="paint0_linear_1273_395" x1="46.5375" y1="59.2898" x2="-0.761701" y2="8.982" gradientUnits="userSpaceOnUse">
<stop stop-color="#3683C5"/>
<stop offset="1" stop-color="#2DC4F3"/>
</linearGradient>
<linearGradient id="paint1_linear_1273_395" x1="72.5996" y1="59.2898" x2="25.301" y2="8.98269" gradientUnits="userSpaceOnUse">
<stop stop-color="#3683C5"/>
<stop offset="1" stop-color="#2DC4F3"/>
</linearGradient>
<linearGradient id="paint2_linear_1273_395" x1="16.3402" y1="63.1761" x2="2.36727" y2="48.3146" gradientUnits="userSpaceOnUse">
<stop stop-color="#3683C5"/>
<stop offset="1" stop-color="#2DC4F3"/>
</linearGradient>
<linearGradient id="paint3_linear_1273_395" x1="68.1713" y1="21.1788" x2="54.1984" y2="6.31733" gradientUnits="userSpaceOnUse">
<stop stop-color="#3683C5"/>
<stop offset="1" stop-color="#2DC4F3"/>
</linearGradient>
</defs>
</svg>
